<?xml version="1.0" encoding="utf-8"?>
<!-- Generator: Adobe Illustrator 22.0.1, SVG Export Plug-In . SVG Version: 6.00 Build 0)  -->
<svg version="1.1" id="Layer_1" xmlns="http://www.w3.org/2000/svg" xmlns:xlink="http://www.w3.org/1999/xlink" x="0px" y="0px"
	 viewBox="0 0 929.5 114.3" style="enable-background:new 0 0 929.5 114.3;" xml:space="preserve">
<style type="text/css">
	.st0{fill:#C60000;}
</style>
<g>
	<path d="M24.2,95V63.9h60.4V44.7H24.2V19.4h65V0H0v114.2h91.6V95H24.2z"/>
	<path d="M185.3,0v76.3L136,0h-23.6v114.2h22.5V39.7l48.6,74.5h24.4V0H185.3z"/>
	<path class="st0" d="M225,0v19.4h35.8v94.8H285V19.4h35.6V0H225z"/>
	<path class="st0" d="M430,92c-5.8-9-10.4-15.2-13.8-18.6c-3.4-3.5-7.7-6.7-13-9.5c10.6-1.5,18.6-5,23.8-10.5c5.3-5.7,8-12.7,8-21.3
		c0-6.7-1.8-12.7-5.3-18c-3.5-5.1-8.3-8.9-14.1-10.9C409.8,1,400.4,0,387.6,0h-51.1v114.2h24.2V66.6h4.9c5.7,0,9.8,0.4,12.3,1.3
		c2.6,0.9,5,2.4,7.3,4.8c2.3,2.3,6.5,8,12.7,16.8l17.6,24.8h29.1L430,92z M378.8,48.3h-18V19.4h19c9.9,0,15.8,0.1,17.7,0.4
		c3.9,0.5,7,2.1,9.2,4.4c2.2,2.4,3.3,5.5,3.3,9.4c0,3.5-0.8,6.3-2.6,8.6c-1.6,2.2-3.8,3.9-6.8,4.8C397.7,47.8,390.4,48.3,378.8,48.3
		z"/>
	<path class="st0" d="M566.4,114.3L518.1,0h-25.6l-47,114.2h50v-13c0-1.7,1.2-2.4,2.4-1.8c4.7,2.4,9.3,2.4,14.1,0
		c1.4-0.6,2.4,0.1,2.4,1.8v13H566.4z M513.8,91.5c-5,4.8-11.2,5.7-17.6,0.1c-0.5,0.5-1.1,0.9-1.6,1.5c-2,1.9-4.1,4-6.1,5.9
		c-2.2,1.9-4.9,0.9-5.6-2.1c-0.1-0.5-0.1-1-0.3-1.5c-0.9-4.2-1.8-8.5-2.7-12.9v-2.6c0.7-4.2,3.1-7.2,6.1-9.5
		c0.5-0.5,1.1-0.9,1.5-1.4c0.4-0.5,0.8-1.3,0.8-1.9c0.1-16.2,5.4-29.8,16.5-40.4c0.1,0,0.1,0,0.1,0s0,0,0.1,0
		c1.2,1.2,2.6,2.2,3.7,3.5c8.3,10.3,12.9,22.2,12.7,36.4c0,1.2,0.4,1.9,1.2,2.7c3.1,2.6,6.2,5.1,7.3,9.6v4.6
		c-0.8,4.2-1.6,8.5-2.4,12.7c-0.7,3.9-3.4,4.9-6.1,2.4C519,96.4,516.4,93.8,513.8,91.5z"/>
	<path class="st0" d="M654.4,71.8c-2,8.1-5.2,14.1-9.7,17.8c-4.5,3.9-9.8,5.7-16.1,5.7c-8.5,0-15.3-3-20.7-9
		c-5.2-5.8-7.9-15.8-7.9-29.8c0-13.2,2.6-22.6,8-28.6c5.4-5.8,12.5-8.8,21.1-8.8c6.2,0,11.5,1.7,15.9,5c4.5,3.4,7.2,8,8.7,13.7
		l23.3-5.3c-2.8-8.8-6.7-15.7-11.9-20.4C656.1,4,644.4,0,630.3,0c-16.4,0-29.5,5.1-39.6,15.3c-10,10.2-14.9,24.5-14.9,42.8
		c0,17.4,5,31.2,14.9,41.2c10,10.1,22.7,15,38.1,15c12.5,0,22.8-2.9,30.9-8.7c8.1-6,13.9-14.9,17.4-27L654.4,71.8z"/>
	<path class="st0" d="M760.8,44.5L806.2,0h-32.8l-49,50.8V0H700v114.2h24.4V79.7l19.6-19l33.2,53.6h31.4L760.8,44.5z"/>
	<path class="st0" d="M914.9,92c-5.8-9-10.4-15.2-13.8-18.6c-3.5-3.5-7.9-6.7-13-9.5c10.6-1.5,18.4-5,23.7-10.5
		c5.4-5.7,8-12.7,8-21.3c0-6.7-1.8-12.7-5.3-18c-3.4-5.1-8.1-8.9-14-10.9C894.7,1,885.3,0,872.5,0h-51.2v114.2h24.4V66.6h4.9
		c5.6,0,9.6,0.4,12.2,1.3c2.6,0.9,5,2.4,7.3,4.8c2.3,2.3,6.6,8,12.9,16.8l17.6,24.8h29L914.9,92z M863.7,48.3h-18V19.4h19
		c9.9,0,15.7,0.1,17.7,0.4c3.9,0.5,6.9,2.1,9.1,4.4c2.2,2.4,3.3,5.5,3.3,9.4c0,3.5-0.8,6.3-2.4,8.6c-1.6,2.2-3.9,3.9-6.8,4.8
		C882.5,47.8,875.3,48.3,863.7,48.3z"/>
</g>
</svg>
